<svg xmlns="http://www.w3.org/2000/svg" viewBox="0 0 780 580" width="780" height="580">
  <style>
    .gallery { fill: #F2C6C6; stroke: #2a2a2a; stroke-width: 1.5; rx: 3; }
    .gallery-geffen { fill: #E0AEAE; stroke: #2a2a2a; stroke-width: 1.5; rx: 3; }
    .label { font-family: 'Helvetica Neue', Arial, sans-serif; font-size: 18px; font-weight: 800; fill: #2a2a2a; text-anchor: middle; dominant-baseline: central; }
    .label-sm { font-family: 'Helvetica Neue', Arial, sans-serif; font-size: 12px; fill: #888; text-anchor: middle; }
    .floor-label { font-family: 'Helvetica Neue', Arial, sans-serif; font-size: 42px; font-weight: 900; fill: #ddd; }
    .wing-label { font-family: 'Helvetica Neue', Arial, sans-serif; font-size: 10px; fill: #aaa; letter-spacing: 0.5px; }
    .outline { fill: #f8f6f3; stroke: #ccc; stroke-width: 1; }
    .corridor { fill: #eee; }
    .studio { fill: #e8e8e8; stroke: #bbb; stroke-width: 1; }
  </style>

  <rect width="780" height="580" fill="#fafafa" rx="8"/>
  <text x="700" y="560" class="floor-label">4</text>

  <rect x="15" y="20" width="750" height="540" class="outline" rx="4"/>

  <!-- Corridors -->
  <rect x="260" y="145" width="30" height="100" class="corridor"/>
  <rect x="140" y="235" width="150" height="20" class="corridor"/>

  <!-- === TOP ROW === -->
  <rect x="20" y="25" width="115" height="110" class="gallery-geffen" rx="3"/>
  <text x="78" y="80" class="label">409</text>

  <rect x="140" y="25" width="150" height="110" class="gallery-geffen" rx="3"/>
  <text x="215" y="80" class="label">408</text>

  <rect x="310" y="25" width="65" height="110" class="gallery" rx="3"/>
  <text x="342" y="80" class="label">407</text>

  <rect x="380" y="25" width="65" height="110" class="gallery" rx="3"/>
  <text x="412" y="80" class="label">405</text>

  <rect x="450" y="25" width="130" height="110" class="gallery" rx="3"/>
  <text x="515" y="80" class="label">403</text>

  <rect x="585" y="25" width="120" height="110" class="gallery" rx="3"/>
  <text x="645" y="80" class="label">402</text>

  <!-- === SECOND ROW === -->
  <rect x="450" y="145" width="80" height="100" class="gallery" rx="3"/>
  <text x="490" y="195" class="label">404</text>

  <rect x="535" y="145" width="110" height="100" class="gallery" rx="3"/>
  <text x="590" y="195" class="label">401</text>

  <rect x="660" y="100" width="95" height="90" class="gallery" rx="3"/>
  <text x="707" y="145" class="label">400</text>

  <!-- === LEFT COLUMN === -->
  <rect x="20" y="145" width="95" height="95" class="gallery-geffen" rx="3"/>
  <text x="68" y="193" class="label">411</text>

  <rect x="120" y="145" width="130" height="95" class="gallery-geffen" rx="3"/>
  <text x="185" y="193" class="label">410</text>

  <rect x="20" y="270" width="105" height="120" class="gallery-geffen" rx="3"/>
  <text x="72" y="330" class="label">412</text>

  <rect x="20" y="455" width="115" height="105" class="gallery-geffen" rx="3"/>
  <text x="78" y="508" class="label">413</text>

  <!-- === CENTER === -->
  <rect x="305" y="220" width="75" height="75" class="gallery" rx="3"/>
  <text x="342" y="255" class="label" style="font-size:14px;">406A</text>

  <rect x="385" y="220" width="75" height="75" class="gallery" rx="3"/>
  <text x="422" y="255" class="label" style="font-size:14px;">406B</text>

  <rect x="180" y="310" width="135" height="120" class="gallery" rx="3"/>
  <text x="248" y="370" class="label">414</text>

  <rect x="320" y="325" width="90" height="100" class="gallery" rx="3"/>
  <text x="365" y="375" class="label">415</text>

  <rect x="460" y="270" width="90" height="85" class="gallery" rx="3"/>
  <text x="505" y="313" class="label">416</text>

  <!-- === BOTTOM ROW === -->
  <rect x="320" y="455" width="95" height="105" class="gallery" rx="3"/>
  <text x="368" y="508" class="label">417</text>

  <rect x="420" y="430" width="90" height="60" class="gallery" rx="3"/>
  <text x="465" y="460" class="label">418</text>

  <rect x="420" y="495" width="90" height="65" class="gallery" rx="3"/>
  <text x="465" y="528" class="label">419</text>

  <rect x="515" y="430" width="90" height="130" class="gallery" rx="3"/>
  <text x="560" y="495" class="label">420</text>

  <rect x="610" y="430" width="80" height="130" class="gallery" rx="3"/>
  <text x="650" y="495" class="label">421</text>

  <!-- Studio -->
  <rect x="140" y="455" width="100" height="105" class="studio" rx="3"/>
  <text x="190" y="508" class="label-sm" style="fill:#999;">Studio</text>

  <!-- Wing labels -->
  <text x="80" y="570" class="wing-label">DAVID GEFFEN WING 408–413</text>
  <text x="490" y="16" class="wing-label">DAVID GEFFEN GALLERIES 401–407, 415–421</text>
</svg>
